<?xml version="1.0" standalone="no"?>
<!DOCTYPE svg PUBLIC "-//W3C//DTD SVG 20010904//EN"
 "http://www.w3.org/TR/2001/REC-SVG-20010904/DTD/svg10.dtd">
<svg version="1.0" xmlns="http://www.w3.org/2000/svg"
 width="800.000000pt" height="800.000000pt" viewBox="0 0 800.000000 800.000000"
 preserveAspectRatio="xMidYMid meet">
<metadata>
Created by potrace 1.16, written by Peter Selinger 2001-2019
</metadata>
<g transform="translate(0.000000,800.000000) scale(0.100000,-0.100000)"
fill="#000000" stroke="none">
<path d="M5741 6695 c0 -5 4 -30 10 -54 8 -37 7 -45 -8 -58 -12 -9 -14 -16 -7
-19 7 -3 10 -14 7 -25 -6 -20 14 -52 27 -44 4 3 10 -4 13 -15 3 -11 12 -20 21
-20 20 0 21 19 1 26 -19 8 -20 34 -1 34 7 0 20 -10 29 -22 8 -13 18 -20 22
-16 4 4 0 19 -9 34 -22 32 -13 44 14 19 11 -10 20 -13 20 -8 0 6 -7 16 -15 23
-8 7 -15 16 -15 21 0 5 7 9 15 9 8 0 15 5 15 10 0 6 5 10 11 10 7 0 9 -9 6
-21 -4 -15 -1 -19 11 -17 12 3 17 13 16 36 -1 18 2 32 6 32 12 0 20 -28 14
-45 -4 -8 -1 -15 5 -15 6 0 11 7 11 15 0 8 8 15 18 15 14 1 14 3 -5 19 -13 11
-23 25 -23 31 0 7 -7 10 -16 6 -9 -3 -18 -6 -20 -6 -2 0 -4 -7 -4 -16 0 -9 -6
-14 -12 -11 -7 2 -21 -2 -30 -11 -16 -14 -18 -13 -19 4 0 12 -4 9 -9 -10 -5
-16 -7 -33 -4 -38 3 -4 -2 -8 -12 -8 -12 0 -15 6 -12 25 5 21 2 24 -17 19 -19
-5 -24 1 -37 48 -9 29 -16 49 -17 43z"/>
<path d="M3554 5432 c-174 -62 -341 -242 -474 -510 -134 -271 -188 -483 -177
-700 6 -98 10 -120 34 -165 40 -74 98 -111 184 -115 56 -4 76 1 145 29 71 30
90 44 190 143 127 127 230 274 320 456 117 237 163 396 164 556 0 212 -81 313
-259 321 -56 3 -90 -1 -127 -15z m262 -98 c45 -50 55 -119 33 -226 -28 -135
-131 -380 -294 -698 -33 -63 -143 -224 -189 -276 -53 -59 -155 -129 -204 -139
-47 -10 -95 1 -126 30 -35 33 -33 47 5 28 22 -11 37 -13 52 -6 13 6 32 7 44 2
27 -10 100 0 82 12 -7 4 -25 5 -40 2 -29 -6 -50 13 -25 23 9 3 16 15 16 26 0
18 -1 18 -16 4 -8 -9 -32 -17 -52 -17 -20 -1 -54 -3 -74 -5 -36 -3 -38 -1 -44
32 -9 50 2 133 33 243 20 71 31 95 46 99 14 4 16 7 5 13 -22 14 27 134 139
340 240 444 486 651 609 513z"/>
<path d="M4363 5368 c-46 -50 -239 -448 -320 -658 -138 -360 -164 -520 -102
-642 54 -105 145 -71 285 108 l82 103 -5 -62 c-7 -81 11 -143 50 -180 26 -24
38 -28 68 -24 115 15 257 148 429 400 67 98 75 127 35 127 -21 0 -33 -12 -63
-61 -93 -154 -265 -355 -334 -390 -131 -67 -116 50 57 441 26 58 67 147 91
199 24 51 44 104 44 117 0 53 -70 82 -117 49 -13 -9 -51 -86 -98 -197 -80
-187 -118 -259 -236 -433 -73 -109 -128 -168 -172 -184 -57 -22 -61 -11 -36
115 37 193 134 437 334 840 74 149 135 280 135 292 0 57 -87 84 -127 40z"/>
<path d="M4700 5303 c-83 -31 -78 -148 7 -169 41 -11 76 7 96 48 16 33 16 40
3 71 -7 19 -18 37 -22 40 -16 9 -69 16 -84 10z"/>
<path d="M2082 4103 c-20 -38 -23 -73 -7 -73 8 0 15 5 15 10 0 19 36 10 70
-19 49 -40 102 -44 160 -13 25 13 54 33 65 43 19 19 19 19 0 19 -11 0 -37 -3
-57 -6 -27 -5 -35 -10 -31 -22 5 -12 2 -14 -18 -8 -13 4 -36 9 -51 10 -16 2
-36 10 -46 19 -10 10 -26 17 -35 17 -10 0 -17 8 -17 20 0 25 -36 27 -48 3z"/>
<path d="M5033 3961 c-23 -25 -144 -259 -218 -421 -31 -69 -65 -144 -76 -167
-10 -24 -19 -48 -19 -54 0 -19 -49 -151 -72 -194 -39 -72 -155 -220 -227 -288
-128 -120 -180 -100 -135 54 20 68 101 261 168 404 78 163 81 172 68 200 -13
27 -49 40 -87 31 -29 -7 -44 -35 -115 -208 -28 -68 -68 -155 -90 -195 -107
-198 -241 -363 -294 -363 l-29 0 5 58 c8 79 120 411 158 467 39 55 99 186 94
201 -18 50 -61 67 -105 44 -10 -6 -31 -33 -45 -61 l-25 -51 -22 43 c-33 64
-65 83 -139 82 -78 0 -160 -30 -216 -79 -36 -30 -152 -189 -152 -208 0 -4 -15
-38 -34 -76 -70 -140 -250 -346 -346 -395 -56 -28 -100 -33 -100 -10 0 9 9 15
25 15 14 0 25 4 25 9 0 5 -10 7 -21 4 -20 -6 -21 -3 -15 22 4 16 48 95 97 176
108 178 142 253 156 339 13 74 12 161 0 153 -5 -3 -21 7 -37 22 -16 16 -43 29
-66 32 -80 10 -207 -105 -342 -309 -35 -54 -65 -98 -67 -98 -4 0 77 174 120
259 14 28 25 62 25 76 0 33 -33 65 -68 65 -52 0 -45 15 -197 -430 -62 -181
-103 -354 -91 -386 3 -9 15 -14 27 -12 16 2 26 17 40 63 21 70 35 97 113 229
116 197 279 407 355 460 36 26 45 28 67 17 23 -10 26 -16 21 -48 -7 -40 -51
-133 -124 -263 -106 -187 -137 -292 -114 -392 13 -59 35 -78 89 -78 78 1 239
125 359 277 l22 28 1 -28 c0 -16 -6 -30 -15 -33 -8 -4 -12 -11 -9 -16 4 -6 0
-14 -7 -19 -9 -7 -5 -7 14 -3 22 5 27 3 27 -13 0 -34 50 -121 91 -157 80 -73
177 -36 279 107 l55 78 6 -53 c7 -63 40 -132 74 -154 20 -13 30 -14 59 -4 46
15 120 82 176 159 l45 62 5 -73 c7 -85 23 -124 61 -144 37 -19 45 -18 104 10
66 30 159 111 215 185 25 33 48 60 51 60 4 1 3 -16 -2 -36 -12 -57 16 -169 51
-205 16 -15 39 -28 52 -28 39 0 112 54 163 120 l48 62 24 -51 c83 -174 330
-175 418 -2 63 126 49 262 -37 337 -111 99 -128 120 -128 160 0 26 3 34 9 25
7 -11 12 -11 32 0 l24 14 -33 3 c-29 3 -32 6 -27 25 10 32 36 67 78 100 50 41
119 44 147 7 11 -14 20 -29 19 -35 0 -5 -4 -2 -10 8 -12 20 -39 23 -39 5 1
-17 26 -50 37 -48 4 1 10 -7 12 -16 4 -24 -26 -44 -66 -44 -26 0 -36 -6 -45
-25 -9 -21 -8 -28 7 -45 32 -36 93 -20 146 37 50 53 46 161 -8 202 -48 39 -97
45 -173 22 -77 -24 -121 -64 -166 -152 -23 -46 -26 -62 -22 -126 3 -60 1 -73
-12 -73 -64 0 -190 -151 -190 -228 0 -30 -66 -127 -119 -175 -40 -36 -86 -56
-98 -43 -10 9 15 145 42 236 26 86 119 323 140 356 7 12 26 50 40 85 15 35 72
153 126 262 54 109 99 204 99 213 0 24 -47 64 -74 64 -14 0 -33 -9 -43 -19z
m-1119 -504 c33 -33 40 -96 17 -154 -47 -121 -92 -226 -117 -275 -91 -180
-207 -298 -269 -275 -8 4 -24 25 -36 49 -42 83 -9 215 101 405 80 138 131 206
182 243 50 36 90 38 122 7z m1407 -505 c21 -73 -19 -160 -87 -188 -111 -46
-220 32 -218 156 1 64 27 102 100 145 35 20 64 42 64 48 0 7 29 -17 64 -53 43
-44 68 -79 77 -108z"/>
<path d="M4515 3875 c-41 -40 -33 -105 16 -131 36 -18 73 -10 99 23 34 44 25
95 -21 118 -40 21 -66 19 -94 -10z"/>
<path d="M5868 3264 c-22 -22 3 -96 38 -115 27 -14 89 4 100 29 10 25 16 57 7
49 -3 -4 -16 2 -28 13 -22 21 -104 38 -117 24z"/>
<path d="M6915 2698 c-39 -13 -85 -79 -85 -121 0 -19 12 -51 27 -74 47 -73
141 -77 202 -7 35 39 40 83 17 139 -25 58 -95 86 -161 63z"/>
<path d="M2383 2613 c-14 -3 -23 -12 -23 -23 0 -10 -9 -22 -20 -25 -27 -9 -25
-29 5 -43 19 -9 24 -9 22 1 -1 6 7 12 18 12 11 0 23 5 28 10 4 7 10 6 15 -1 7
-11 147 -12 159 -1 3 4 18 -1 32 -9 25 -15 30 -14 76 10 28 14 46 26 40 26 -5
1 -46 3 -90 4 -104 4 -101 3 -120 22 -15 16 -16 16 -13 -2 5 -30 -37 -30 -65
0 -14 14 -28 25 -33 25 -5 -1 -19 -4 -31 -6z"/>
<path d="M5352 2093 c-35 -14 -53 -113 -21 -113 6 0 8 7 5 16 -3 9 -2 12 5 9
5 -4 9 -16 7 -28 -2 -13 2 -21 10 -19 6 1 12 -2 12 -8 0 -5 10 -10 23 -10 18
0 19 2 7 11 -12 8 -10 9 8 4 47 -13 84 50 56 94 -31 46 -69 62 -112 44z"/>
<path d="M5891 1914 c-15 -11 -21 -23 -18 -35 3 -11 1 -17 -4 -13 -18 11 -9
-43 11 -64 28 -30 62 -36 98 -18 49 25 57 81 17 121 -28 29 -70 32 -104 9z"/>
<path d="M1966 1518 c3 -13 11 -24 15 -26 12 -5 11 -22 0 -22 -5 0 -16 6 -24
14 -8 8 -22 14 -33 13 -10 -1 -18 4 -16 11 3 19 -16 14 -28 -8 -6 -11 -17 -20
-25 -20 -25 0 -17 -29 10 -36 14 -3 25 -12 25 -19 0 -7 7 -18 16 -26 12 -10
20 -10 35 -1 17 11 21 9 29 -14 11 -29 35 -28 35 2 1 26 14 46 28 41 17 -6 49
12 42 23 -3 5 -6 25 -7 45 -1 39 -3 40 -38 20 -33 -19 -38 -18 -45 5 -3 11
-11 20 -16 20 -6 0 -7 -10 -3 -22z"/>
<path d="M5842 1425 c-13 -7 -36 -25 -53 -41 -24 -23 -29 -36 -29 -75 0 -42 5
-53 40 -90 38 -41 40 -41 95 -37 30 3 62 12 72 21 22 19 60 83 44 73 -8 -6 -8
-1 0 18 6 13 9 35 6 48 -9 35 -43 71 -59 62 -7 -4 -10 -4 -6 1 10 10 -38 35
-66 34 -11 -1 -31 -7 -44 -14z"/>
</g>
</svg>
