<?xml version="1.0" standalone="no"?>
<!DOCTYPE svg PUBLIC "-//W3C//DTD SVG 20010904//EN"
 "http://www.w3.org/TR/2001/REC-SVG-20010904/DTD/svg10.dtd">
<svg version="1.0" xmlns="http://www.w3.org/2000/svg"
 width="1080.000000pt" height="1080.000000pt" viewBox="0 0 1080.000000 1080.000000"
 preserveAspectRatio="xMidYMid meet">
<metadata>
Created by potrace 1.16, written by Peter Selinger 2001-2019
</metadata>
<g transform="translate(0.000000,1080.000000) scale(0.100000,-0.100000)"
fill="#000000" stroke="none">
<path d="M4839 7251 c-240 -102 -454 -349 -640 -736 -139 -290 -211 -550 -207
-750 l0 -60 9 56 c17 115 68 289 93 319 7 8 16 36 18 62 10 94 235 512 402
748 101 143 268 313 351 357 74 40 62 42 -26 4z"/>
<path d="M5947 7161 c-61 -73 -267 -483 -407 -811 -151 -354 -228 -653 -190
-745 6 -17 9 -13 15 20 3 22 20 96 37 165 58 239 132 418 400 963 177 361 199
410 186 424 -13 13 -18 11 -41 -16z"/>
<path d="M5272 6879 c-3 -44 -50 -197 -103 -330 -27 -69 -110 -249 -185 -400
-74 -151 -129 -267 -120 -259 60 62 272 467 340 650 40 109 79 288 73 334 -3
28 -4 28 -5 5z"/>
<path d="M6181 6488 c-16 -29 -66 -134 -111 -233 -84 -185 -136 -285 -202
-390 -29 -46 -34 -61 -23 -63 12 -3 15 -23 15 -100 1 -60 6 -108 15 -127 l13
-30 1 52 c2 98 102 362 285 748 42 88 76 165 76 171 0 10 -21 24 -35 24 -2 0
-17 -24 -34 -52z"/>
<path d="M6812 5263 c-77 -109 -373 -714 -419 -857 -39 -121 -85 -224 -126
-286 -20 -30 -33 -56 -27 -58 6 -2 10 -42 11 -90 1 -48 5 -98 9 -112 4 -14 8
-22 9 -19 23 147 67 299 144 489 50 127 71 171 310 662 107 220 132 279 122
288 -10 8 -18 4 -33 -17z"/>
<path d="M3772 4672 c-39 -86 -232 -619 -232 -641 0 -2 28 42 62 99 58 97 61
106 59 160 -2 54 3 67 83 229 47 94 86 177 86 185 0 7 -6 19 -14 25 -10 9 -19
-2 -44 -57z"/>
<path d="M5000 4689 c-30 -16 -68 -42 -83 -57 -58 -54 -177 -223 -215 -304
-21 -46 -56 -110 -76 -142 -21 -33 -33 -62 -28 -65 5 -3 11 -37 14 -76 3 -40
14 -89 26 -115 l20 -45 1 76 c1 48 9 103 22 145 49 159 230 465 340 575 22 22
38 39 37 39 -2 0 -28 -14 -58 -31z"/>
<path d="M5488 4683 c-14 -21 -32 -53 -42 -70 -13 -26 -23 -33 -45 -33 -28 0
-28 -2 -33 -64 -4 -50 -21 -100 -73 -223 -37 -87 -81 -184 -97 -217 -17 -33
-26 -61 -20 -65 5 -3 12 -28 16 -56 15 -100 18 -105 32 -36 31 149 150 478
210 577 59 98 106 195 100 210 -9 23 -22 16 -48 -23z"/>
<path d="M5967 4653 c-14 -27 -53 -110 -86 -185 -75 -171 -130 -281 -188 -376
-26 -43 -41 -77 -35 -81 5 -3 13 -41 17 -84 3 -42 11 -75 16 -71 5 3 9 18 9
34 0 60 95 296 242 602 49 103 87 192 83 198 -13 21 -33 8 -58 -37z"/>
<path d="M4308 4636 c-5 -63 -42 -145 -168 -371 -49 -88 -101 -188 -115 -223
-37 -91 -57 -174 -45 -186 7 -7 10 -2 10 15 0 30 26 80 147 282 123 206 178
322 198 425 18 86 16 112 -8 112 -10 0 -16 -16 -19 -54z"/>
<path d="M6940 4363 c0 -63 -7 -83 -29 -83 -30 0 -110 -60 -157 -118 -56 -68
-74 -103 -89 -167 -10 -44 -9 -52 7 -67 17 -17 18 -16 18 45 1 108 28 146 172
240 48 31 66 37 112 37 53 0 54 0 119 -70 37 -38 75 -87 86 -107 14 -27 20
-32 20 -18 1 46 -43 113 -134 205 -52 52 -101 109 -109 125 l-16 30 0 -52z"/>
<path d="M9292 3557 c-45 -32 -75 -82 -68 -112 9 -36 72 -95 101 -95 35 0 115
79 115 113 0 32 -50 92 -89 105 -24 8 -34 6 -59 -11z"/>
<path d="M7859 1883 c-46 -31 -89 -77 -89 -96 0 -23 65 -104 90 -112 49 -15
130 58 130 117 0 27 -33 68 -55 68 -8 0 -15 3 -15 8 0 4 -8 12 -19 19 -15 9
-23 8 -42 -4z"/>
</g>
</svg>
